<svg
  id="Layer_1"
  data-name="Layer 1"
  xmlns="http://www.w3.org/2000/svg"
  viewBox="0 0 735.7 551.77"
>
  <defs>
    <style>.cls-1{fill:#eee}</style>
  </defs>
  <path d="M0 107.29h735.7v413.83c0 16.85-13.8 30.65-30.65 30.65H30.65C13.8 551.77 0 537.97 0 521.12V107.29z" />
  <path class="cls-1" d="M250.28 0H485.25V91.95H250.28z" />
  <path
    class="cls-1"
    d="M234.97 0H30.65C13.8 0 0 13.8 0 30.65v61.3h234.97V0zM705.05 0H500.59v91.95H735.7v-61.3C735.7 13.8 721.9 0 705.05 0zM352.52 459.82c0 9.2 6.14 15.34 15.34 15.34h245.23c9.2 0 15.34-6.14 15.34-15.34v-45.99c0-9.2-6.14-15.34-15.34-15.34H367.83c-9.2 0-15.34 6.14-15.34 15.34v45.99h.03zM193.13 320.33l-95.04 95.04c-7.66 7.66-7.66 18.4 0 24.51l27.59 27.59c7.66 7.66 18.4 7.66 24.51 0l134.89-134.89c6.76-5.64 7.71-15.68 2.08-22.43-.62-.76-1.32-1.46-2.08-2.08L150.19 173.18c-6.14-6.14-18.4-6.14-24.51 0l-27.59 27.59c-7.66 6.14-7.66 16.85 0 24.51l95.04 95.04zM370.33 359.62c-11.28-8.54-17.23-20.81-17.83-36.83l49.22 1.13c.5 8.5 4.16 12.83 10.97 12.98 2.5.06 4.63-.48 6.4-1.63 1.76-1.14 2.68-2.96 2.73-5.47.08-3.47-1.73-6.33-5.44-8.58-3.71-2.24-9.49-4.84-17.35-7.81-9.38-3.55-17.13-7-23.24-10.34-6.12-3.34-11.33-8.12-15.63-14.34-4.31-6.22-6.28-14.13-5.92-23.72.22-9.59 2.88-17.71 7.97-24.34 5.09-6.63 11.95-11.58 20.58-14.86 8.63-3.28 18.3-4.8 29.01-4.55 18.07.42 32.34 4.92 42.78 13.51 10.45 8.59 15.77 20.47 15.98 35.63l-49.85-1.15c-.04-4.17-1.02-7.19-2.92-9.04-1.91-1.85-4.25-2.81-7.03-2.87-1.95-.05-3.56.58-4.84 1.87-1.28 1.29-1.95 3.12-2 5.48-.08 3.34 1.7 6.13 5.34 8.37 3.63 2.24 9.45 4.98 17.45 8.23 9.23 3.69 16.84 7.21 22.82 10.54 5.97 3.34 11.12 7.91 15.44 13.71 4.32 5.81 6.38 13.02 6.18 21.64-.21 9.04-2.62 17.09-7.23 24.15-4.62 7.06-11.21 12.51-19.78 16.34-8.58 3.84-18.7 5.62-30.38 5.35-17.66-.41-32.13-4.88-43.41-13.42zM573.28 348.25l-48.5-.28-7.32 21.95-47.88-.28 54.06-145.19 52.61.3 52.18 145.8-48.09-.28-7.07-22.03zm-11.87-30.27l-13.62-40.33-12.68 40.63 26.3-.31z"
  />
</svg>
