<?xml version="1.0" encoding="UTF-8"?>
<svg id="Layer_1" data-name="Layer 1" xmlns="http://www.w3.org/2000/svg" width="394.95" height="165.31" viewBox="0 0 394.95 165.31">
  <defs>
    <style>
      .cls-1 {
        fill: #fff;
      }
    </style>
  </defs>
  <g>
    <path class="cls-1" d="M0,3.03h11.94c8.4,0,41.88,0,41.88,35.21s-31.06,35.61-37.74,35.61H0V3.03Z"/>
    <path class="cls-1" d="M62.42,3.03h25.29v70.82h-25.29V3.03Z"/>
    <path class="cls-1" d="M96.31,39.56c0-22.46,16.89-37.74,40.67-37.74v37.43h26.91v25.7c-6.37,6.17-16.89,10.12-28.33,10.12-23.98,0-39.25-13.96-39.25-35.51Z"/>
    <path class="cls-1" d="M173.2,3.03h25.29v70.82h-25.29V3.03Z"/>
    <path class="cls-1" d="M207.4,3.03h62.02v24.89h-17.5v45.93h-25.29V27.92h-19.22V3.03Z"/>
    <path class="cls-1" d="M299.97,0l37.53,73.85h-75.07L299.97,0Z"/>
    <path class="cls-1" d="M344.08,3.03h25.29v45.93h25.49v24.89h-50.79V3.03Z"/>
  </g>
  <g>
    <path class="cls-1" d="M52.86,158.42c-5.17,4.59-11.81,6.89-19.9,6.89-6.55,0-12.35-1.54-17.4-4.63-5.04-3.08-8.9-7.34-11.56-12.77-2.67-5.43-4-11.52-4-18.26s1.35-12.85,4.05-18.31c2.7-5.46,6.55-9.75,11.57-12.87,5.01-3.12,10.79-4.67,17.35-4.67,7.84,0,14.34,2.2,19.52,6.6,5.17,4.4,8.47,10.59,9.88,18.55l-15.13.58c-.84-4.3-2.52-7.61-5.06-9.93-2.54-2.31-5.7-3.47-9.49-3.47s-7.1,1-9.73,2.99c-2.64,1.99-4.61,4.77-5.93,8.34-1.32,3.57-1.98,7.63-1.98,12.19s.66,8.58,1.98,12.05c1.32,3.47,3.29,6.22,5.93,8.24,2.63,2.03,5.88,3.04,9.73,3.04s7.24-1.25,9.78-3.76c2.54-2.51,4.16-6.07,4.87-10.7l15.32.58c-1.35,8.29-4.61,14.73-9.78,19.32Z"/>
    <path class="cls-1" d="M90.4,95.34h17.35l24.58,68.43h-15.13l-5.01-14.55h-26.31l-5.11,14.55h-15.03l24.67-68.43ZM108.14,137.27l-9.06-26.6-9.16,26.6h18.22Z"/>
    <path class="cls-1" d="M156.52,95.34l26.99,46.84v-46.84h14.65v68.43h-16.67l-26.5-45.3v45.3h-14.65v-68.43h16.19Z"/>
    <path class="cls-1" d="M222.73,95.34l18.31,51.85,18.02-51.85h15.23l-24.67,68.43h-17.15l-24.77-68.43h15.04Z"/>
    <path class="cls-1" d="M294.15,95.34h17.35l24.58,68.43h-15.13l-5.01-14.55h-26.31l-5.11,14.55h-15.04l24.67-68.43ZM311.88,137.27l-9.06-26.6-9.16,26.6h18.22Z"/>
    <path class="cls-1" d="M356.6,147c1.28,1.8,3,3.2,5.16,4.19,2.15,1,4.64,1.49,7.47,1.49,2.12,0,4.01-.29,5.69-.87,1.67-.58,2.94-1.44,3.81-2.6.87-1.16,1.3-2.54,1.3-4.14,0-2.51-1.16-4.56-3.47-6.17-2.31-1.6-6.17-3.05-11.57-4.34-7.9-1.86-13.94-4.43-18.12-7.71-4.18-3.28-6.27-7.55-6.27-12.82,0-4.11,1.09-7.69,3.28-10.75,2.18-3.05,5.24-5.4,9.16-7.04,3.92-1.64,8.42-2.46,13.49-2.46s9.49.96,13.44,2.89c3.95,1.93,7.13,4.64,9.54,8.14,2.41,3.5,3.87,7.53,4.38,12.1l-14.65.67c-.26-2.31-.95-4.37-2.07-6.17-1.12-1.8-2.62-3.16-4.48-4.1-1.87-.93-4.02-1.4-6.46-1.4-3.21,0-5.81.77-7.81,2.31-1.99,1.54-2.93,3.57-2.8,6.07.06,1.67.67,3.08,1.83,4.24,1.16,1.16,2.63,2.09,4.43,2.79,1.8.71,4.11,1.41,6.94,2.12.32.06.67.16,1.06.29,7.97,1.8,14.13,4.4,18.5,7.81,4.37,3.41,6.55,7.71,6.55,12.91,0,4.24-1.16,7.9-3.47,10.99-2.31,3.08-5.44,5.43-9.4,7.04-3.95,1.61-8.4,2.41-13.35,2.41-5.59,0-10.54-.96-14.84-2.89-4.31-1.93-7.73-4.69-10.26-8.29-2.54-3.6-3.97-7.74-4.29-12.43l14.65-.77c.45,2.51,1.32,4.66,2.6,6.46Z"/>
  </g>
</svg>